HIERARCHY
ROOT Pelvis
{
	OFFSET 0.000000 0.000000 0.000000
	CHANNELS 6 Xposition Yposition Zposition Xrotation Yrotation Zrotation
	JOINT LeftUpLeg_virtual
	{
		OFFSET 0.000000 0.000000 0.000000
		CHANNELS 3 Xrotation Yrotation Zrotation
		JOINT LeftUpLeg
		{
			OFFSET 8.479700 -4.795502 -0.379100
			CHANNELS 3 Xrotation Yrotation Zrotation
			JOINT LeftLeg
			{
				OFFSET 0.024144 -32.555107 0.112900
				CHANNELS 3 Xrotation Yrotation Zrotation
				JOINT LeftFoot
				{
					OFFSET -0.024144 -32.638630 -3.012600
					CHANNELS 3 Xrotation Yrotation Zrotation
					JOINT LeftToeBase
					{
						OFFSET 0.970200 -13.225400 11.864200
						CHANNELS 3 Xrotation Yrotation Zrotation
						End Site
						{
							OFFSET 0 0 0
						}
					}
				}
			}
		}
	}
	JOINT RightUpLeg_virtual
	{
		OFFSET 0.000000 0.000000 0.000000
		CHANNELS 3 Xrotation Yrotation Zrotation
		JOINT RightUpLeg
		{
			OFFSET -8.479700 -4.795502 -0.379100
			CHANNELS 3 Xrotation Yrotation Zrotation
			JOINT RightLeg
			{
				OFFSET -0.023144 -32.555092 0.112900
				CHANNELS 3 Xrotation Yrotation Zrotation
				JOINT RightFoot
				{
					OFFSET 0.023144 -32.638641 -3.012700
					CHANNELS 3 Xrotation Yrotation Zrotation
					JOINT RightToeBase
					{
						OFFSET -0.970200 -13.225400 11.864200
						CHANNELS 3 Xrotation Yrotation Zrotation
						End Site
						{
							OFFSET 0 0 0
						}
					}
				}
			}
		}
	}
	JOINT Hips_virtual
	{
		OFFSET 0.000000 0.000000 0.000000
		CHANNELS 3 Xrotation Yrotation Zrotation
		JOINT Hips
		{
			OFFSET -0.000000 -0.000000 -0.000000
			CHANNELS 3 Xrotation Yrotation Zrotation
			JOINT Spine
			{
				OFFSET 0.000000 7.722000 1.166200
				CHANNELS 3 Xrotation Yrotation Zrotation
				JOINT Spine1
				{
					OFFSET 0.000000 12.024101 0.248800
					CHANNELS 3 Xrotation Yrotation Zrotation
					JOINT Spine2
					{
						OFFSET 0.000000 11.502998 -0.491200
						CHANNELS 3 Xrotation Yrotation Zrotation
						JOINT Neck_virtual
						{
							OFFSET 0.000000 0.000000 0.000000
							CHANNELS 3 Xrotation Yrotation Zrotation
							JOINT Neck
							{
								OFFSET 0.000000 18.430702 -3.123100
								CHANNELS 3 Xrotation Yrotation Zrotation
								JOINT Head
								{
									OFFSET 0.000000 9.051102 1.034000
									CHANNELS 3 Xrotation Yrotation Zrotation
									End Site
									{
										OFFSET 0 0 0
									}
								}
							}
						}
						JOINT LeftShoulder_virtual
						{
							OFFSET 0.000000 0.000000 0.000000
							CHANNELS 3 Xrotation Yrotation Zrotation
							JOINT LeftShoulder
							{
								OFFSET 6.197800 13.665199 -4.064700
								CHANNELS 3 Xrotation Yrotation Zrotation
								JOINT LeftArm
								{
									OFFSET 7.778100 -0.187103 -1.709300
									CHANNELS 3 Xrotation Yrotation Zrotation
									JOINT LeftForeArm
									{
										OFFSET 22.049376 0.000000 0.000000
										CHANNELS 3 Xrotation Yrotation Zrotation
										JOINT LeftHand
										{
											OFFSET 23.009392 0.000000 0.000000
											CHANNELS 3 Xrotation Yrotation Zrotation
											End Site
											{
												OFFSET 0 0 0
											}
										}
									}
								}
							}
						}
						JOINT RightShoulder_virtual
						{
							OFFSET 0.000000 0.000000 0.000000
							CHANNELS 3 Xrotation Yrotation Zrotation
							JOINT RightShoulder
							{
								OFFSET -6.197800 13.665199 -4.064700
								CHANNELS 3 Xrotation Yrotation Zrotation
								JOINT RightArm
								{
									OFFSET -7.778100 -0.187103 -1.709300
									CHANNELS 3 Xrotation Yrotation Zrotation
									JOINT RightForeArm
									{
										OFFSET -22.049376 0.000000 0.000000
										CHANNELS 3 Xrotation Yrotation Zrotation
										JOINT RightHand
										{
											OFFSET -23.009392 0.000000 0.000000
											CHANNELS 3 Xrotation Yrotation Zrotation
											End Site
											{
												OFFSET 0 0 0
											}
										}
									}
								}
							}
						}
					}
				}
			}
		}
	}
}
MOTION
Frames: 8
Frame Time: 0.03333333
-0.588198 80.405891 0.093878 0.000000 0.000000 0.000000 -19.801005 -82.304790 -21.016962 -17.820706 14.832586 9.603649 28.144104 -2.995656 5.079105 -8.826564 1.209709 -7.155173 0.000000 0.000000 0.000000 -19.801005 -82.304790 -21.016962 -12.955418 -23.320593 -8.727975 23.074215 8.778347 -8.833940 -8.574597 -1.341389 11.058312 0.000000 0.000000 0.000000 -19.801005 -82.304790 -21.016962 0.000000 0.000000 0.000000 2.270980 0.115040 0.071421 4.588851 0.048045 1.587649 0.000000 0.000000 0.000000 4.566500 0.058995 1.631779 -6.449451 9.163135 -4.228988 0.000000 0.000000 0.000000 4.566500 0.058995 1.631779 -0.232475 4.637870 -1.359674 25.122266 -77.231244 -42.206184 -0.000008 -14.145785 -0.000001 0.000000 0.000000 0.000000 4.566500 0.058995 1.631779 1.612993 4.329175 7.043633 8.595131 25.593740 60.579523 -0.000008 32.803674 -0.000006 0.000000 0.000000 0.000000 
-0.592902 80.410904 0.090700 0.000000 0.000000 0.000000 -19.918097 -82.295870 -21.130012 -17.785457 14.845778 9.589855 28.111322 -2.996114 5.092984 -8.810718 1.211742 -7.160377 0.000000 0.000000 0.000000 -19.918097 -82.295870 -21.130012 -12.915442 -23.334522 -8.725318 23.041235 8.787478 -8.833687 -8.564773 -1.341232 11.059050 0.000000 0.000000 0.000000 -19.918097 -82.295870 -21.130012 0.000000 0.000000 0.000000 2.266139 0.105640 0.073564 4.580604 0.031468 1.605107 0.000000 0.000000 0.000000 4.558149 0.042193 1.649043 -6.406090 9.181267 -4.285428 0.000000 0.000000 0.000000 4.558149 0.042193 1.649043 -0.234248 4.680281 -1.477821 26.581606 -77.401999 -40.727510 0.000005 -14.148543 -0.000010 0.000000 0.000000 0.000000 4.558149 0.042193 1.649043 1.618816 4.365955 6.951331 8.569720 25.644837 60.639164 0.000012 32.733934 -0.000026 0.000000 0.000000 0.000000 
-0.597924 80.416214 0.087540 0.000000 0.000000 0.000000 -20.033553 -82.286526 -21.246502 -17.749182 14.844644 9.583911 28.080632 -2.992513 5.099301 -8.797902 1.212938 -7.166109 0.000000 0.000000 0.000000 -20.033553 -82.286526 -21.246502 -12.869292 -23.341861 -8.718347 23.002195 8.790261 -8.823600 -8.552401 -1.340417 11.056201 0.000000 0.000000 0.000000 -20.033553 -82.286526 -21.246502 0.000000 0.000000 0.000000 2.259341 0.093693 0.080485 4.568351 0.010006 1.625760 0.000000 0.000000 0.000000 4.545687 0.020624 1.669544 -6.358689 9.200884 -4.344188 0.000000 0.000000 0.000000 4.545687 0.020624 1.669544 -0.236517 4.731576 -1.616344 28.224954 -77.569092 -39.068211 0.000001 -14.159480 -0.000010 0.000000 0.000000 0.000000 4.545687 0.020624 1.669544 1.625858 4.410173 6.848793 8.546700 25.709163 60.700991 0.000006 32.649670 -0.000016 0.000000 0.000000 0.000000 
-0.602807 80.421844 0.084700 0.000000 0.000000 0.000000 -20.138316 -82.275714 -21.356910 -17.712272 14.829548 9.583274 28.050274 -2.985541 5.100306 -8.786565 1.213386 -7.172602 0.000000 0.000000 0.000000 -20.138316 -82.275714 -21.356910 -12.818527 -23.344212 -8.708632 22.957220 8.787242 -8.803431 -8.537229 -1.339041 11.049848 0.000000 0.000000 0.000000 -20.138316 -82.275714 -21.356910 0.000000 0.000000 0.000000 2.251498 0.079867 0.092767 4.553622 -0.015323 1.649034 0.000000 0.000000 0.000000 4.530654 -0.004746 1.692760 -6.309807 9.221835 -4.404453 0.000000 0.000000 0.000000 4.530654 -0.004746 1.692760 -0.239166 4.791742 -1.775043 30.042573 -77.727177 -37.237303 0.000007 -14.178587 0.000014 0.000000 0.000000 0.000000 4.530654 -0.004746 1.692760 1.633871 4.460056 6.738922 8.526320 25.781080 60.764792 0.000008 32.555277 -0.000015 0.000000 0.000000 0.000000 
-0.606575 80.427612 0.082123 0.000000 0.000000 0.000000 -20.219112 -82.262566 -21.446685 -17.678000 14.800670 9.583874 28.021524 -2.973916 5.099771 -8.775672 1.213173 -7.180627 0.000000 0.000000 0.000000 -20.219112 -82.262566 -21.446685 -12.767124 -23.344704 -8.697585 22.908219 8.779725 -8.776393 -8.519432 -1.337353 11.041172 0.000000 0.000000 0.000000 -20.219112 -82.262566 -21.446685 0.000000 0.000000 0.000000 2.243852 0.065353 0.110519 4.538628 -0.042548 1.674178 0.000000 0.000000 0.000000 4.515266 -0.031855 1.717975 -6.262548 9.243666 -4.465039 0.000000 0.000000 0.000000 4.515266 -0.031855 1.717975 -0.241921 4.857630 -1.946193 31.985943 -77.874047 -35.281424 -0.000001 -14.201007 0.000001 0.000000 0.000000 0.000000 4.515266 -0.031855 1.717975 1.642504 4.513236 6.629210 8.509110 25.847481 60.828449 -0.000003 32.462199 0.000010 0.000000 0.000000 0.000000 
-0.607574 80.432983 0.078976 0.000000 0.000000 0.000000 -20.260021 -82.247157 -21.498333 -17.650580 14.760044 9.581967 27.994321 -2.955524 5.101882 -8.762569 1.212816 -7.191619 0.000000 0.000000 0.000000 -20.260021 -82.247157 -21.498333 -12.722315 -23.346203 -8.685152 22.860828 8.769041 -8.749715 -8.500210 -1.335927 11.032374 0.000000 0.000000 0.000000 -20.260021 -82.247157 -21.498333 0.000000 0.000001 0.000000 2.237931 0.051773 0.133012 4.526208 -0.068606 1.700282 0.000000 0.000000 0.000000 4.502385 -0.057619 1.744304 -6.220355 9.265737 -4.524418 0.000000 0.000000 0.000000 4.502385 -0.057619 1.744304 -0.244450 4.922993 -2.114203 33.971100 -78.012365 -33.281651 -0.000004 -14.217963 -0.000007 0.000000 0.000000 0.000000 4.502385 -0.057619 1.744304 1.651307 4.567000 6.530769 8.495718 25.888570 60.888527 0.000008 32.389020 -0.000019 0.000000 0.000000 0.000000 
-0.603418 80.437057 0.073917 0.000000 0.000000 0.000000 -20.247918 -82.231830 -21.497313 -17.637690 14.711543 9.575685 27.972328 -2.927167 5.111123 -8.745682 1.212780 -7.207515 0.000000 0.000000 0.000000 -20.247918 -82.231830 -21.497313 -12.693469 -23.348414 -8.669101 22.823647 8.754808 -8.732810 -8.481519 -1.335345 11.025985 0.000000 0.000000 0.000000 -20.247918 -82.231830 -21.497313 0.000000 0.000001 0.000000 2.235418 0.041352 0.158578 4.519639 -0.089365 1.726253 0.000000 0.000000 0.000000 4.495335 -0.077911 1.770641 -6.186663 9.287374 -4.580750 0.000000 0.000000 0.000000 4.495335 -0.077911 1.770641 -0.246492 4.979590 -2.258061 35.894912 -78.150990 -31.336802 -0.000001 -14.217760 0.000015 0.000000 0.000000 0.000000 4.495335 -0.077911 1.770641 1.659756 4.618658 6.455626 8.485928 25.881229 60.941072 0.000009 32.359558 0.000006 0.000000 0.000000 0.000000 
-0.591098 80.438652 0.065128 0.000000 0.000000 0.000000 -20.176609 -82.221100 -21.435997 -17.647867 14.662463 9.565099 27.959673 -2.886467 5.131419 -8.723366 1.213562 -7.230197 0.000000 0.000000 0.000000 -20.176609 -82.221100 -21.435997 -12.690586 -23.344851 -8.645606 22.806350 8.733070 -8.734929 -8.465009 -1.336356 11.024563 0.000000 0.000000 0.000000 -20.176609 -82.221100 -21.435997 0.000000 0.000001 0.000000 2.237996 0.036601 0.184262 4.522399 -0.099934 1.750729 0.000000 0.000000 0.000000 4.497650 -0.087830 1.795579 -6.164603 9.307576 -4.632002 0.000000 0.000000 0.000000 4.497650 -0.087830 1.795579 -0.247967 5.019045 -2.356162 37.663043 -78.303003 -29.535360 0.000008 -14.190214 -0.000002 0.000000 0.000000 0.000000 4.497650 -0.087830 1.795579 1.667239 4.664951 6.413230 8.477766 25.804146 60.982975 0.000002 32.399979 -0.000004 0.000000 0.000000 0.000000 
